# xmcd
#
# Track frame offsets:
#	150
#	11987
#	24285
#	31980
#	44477
#	56392
#	72005
#	83455
#	97615
#
# Disc length: 1550 seconds
#
# Revision: 1
# Processed by: cddbd v1.4PL0 Copyright (c) Steve Scherf et al.
# Submitted via: CDmax 2.0
#
DISCID=5c060c09
DTITLE=Johnny Cash - Greatest hits (Extra-CD)
DYEAR=1995
DGENRE=Country
TTITLE0=Get rhythm (live)
TTITLE1=#1 Folsom prison blues (live)
TTITLE2=I still miss someone (live)
TTITLE3=Jackson (live)
TTITLE4=Green, green grass of home (live)
TTITLE5=Wanted man (live)
TTITLE6=I walk the line (live)
TTITLE7=San Quentin (live)
TTITLE8=Sunday morning coming down (live)
EXTD=
EXTT0=
EXTT1=
EXTT2=
EXTT3=With June Carter
EXTT4=
EXTT5=
EXTT6=
EXTT7=
EXTT8=
PLAYORDER=
